<svg xmlns="http://www.w3.org/2000/svg" viewBox="0 0 131.03 131.03"><defs><style>.cls-1{fill:#b62025;}.cls-2,.cls-3{fill:none;stroke:#b62025;stroke-miterlimit:10;}.cls-2{stroke-width:1.36px;}.cls-3{stroke-width:3.55px;}</style></defs><g id="Layer_2" data-name="Layer 2"><g id="carr_right"><path class="cls-1" d="M61.89,54.61v20H45.55V80H61.38v8.14H45.57V93.7H61.84v27c-13.9,1.4-38.67-13.67-44.07-26.9H35.52V88.15h-1.6c-6,0-11.9,0-17.86,0A1.81,1.81,0,0,1,14,86.75c-.75-2.2-1.58-4.37-2.45-6.77h24V74.57H34.09c-7.42,0-14.84,0-22.25,0-1.08,0-1.47-.26-1.62-1.39a57.91,57.91,0,0,1,.27-17.63c.13-.76.35-1.09,1.19-1.08q24.78,0,49.58,0A4.15,4.15,0,0,1,61.89,54.61ZM18.41,61.34c0,1.67.09,3.23,0,4.77-.1,1.35.25,1.79,1.7,1.78,10.24-.08,20.48,0,30.72,0a6.24,6.24,0,0,0,1.5,0c.29-.07.72-.45.73-.7.06-1.91,0-3.82,0-5.77Zm18.68,40.41a55.88,55.88,0,0,0,16.57,8.86v-8.86Z"/><path class="cls-1" d="M95.51,74.53v5.4h24c-1,2.75-2,5.29-3,7.78-.12.28-.85.42-1.29.42q-9,0-18,0H95.53v5.53h18a54.31,54.31,0,0,1-13.22,15.15,55.07,55.07,0,0,1-31.08,12v-27H85.45V88.2H69.69V80H85.44V74.64H69.2V54.57c.47,0,.91-.06,1.35-.07q24.26,0,48.49,0c1,0,1.38.28,1.55,1.32a57.42,57.42,0,0,1,0,18.73ZM78,61.34c0,1.76.09,3.36,0,4.94-.1,1.31.37,1.6,1.61,1.59,10.51,0,21,0,31.55,0a2.18,2.18,0,0,0,.81,0c.28-.12.69-.39.7-.61.05-1.94,0-3.89,0-5.87Zm-.61,49.31c5.93-2.24,11.47-4.76,16.5-8.89H77.38Z"/><path class="cls-1" d="M61.35,47.57h-49c1-2.31,1.88-4.52,2.9-6.67.13-.28.85-.4,1.29-.4,5.59,0,11.17,0,16.75,0h1.53V35.86H17.94c1.25-1.76,2.4-3.16,3.3-4.71a5.8,5.8,0,0,1,6.32-3.1,66.79,66.79,0,0,0,7.37.05c0-2.88,0-5.61,0-8.35a1.86,1.86,0,0,1,1.11-2c2.23-1.15,4.4-2.43,6.67-3.5a12.85,12.85,0,0,1,3-.62V28.08H61.36v7.7H45.84v4.66H61.35Z"/><path class="cls-1" d="M69.66,47.56V40.51H85.21V35.84H69.67v-7.7H85.25V13.71a12,12,0,0,1,3,.54c2.35,1.12,4.6,2.44,6.91,3.64a1.67,1.67,0,0,1,1,1.76c0,2.29,0,4.58,0,6.87v1.59c3.42,0,6.66,0,9.91,0a2.29,2.29,0,0,1,2.07,1c1.59,2.15,3.22,4.27,5.09,6.73h-17v4.67H97.7c5.58,0,11.17,0,16.75,0a1.49,1.49,0,0,1,1.66,1c.79,2,1.64,4,2.52,6.06Z"/><circle class="cls-2" cx="65.52" cy="65.52" r="59.26"/><circle class="cls-3" cx="65.52" cy="65.52" r="63.74"/></g></g></svg>