<svg xmlns="http://www.w3.org/2000/svg" viewBox="0 0 290.81 128.9"><defs><style>.cls-1{fill:none;}.cls-2{fill:#b62025;}</style></defs><g id="Layer_2" data-name="Layer 2"><g id="carr_right"><path class="cls-1" d="M109.19,46.68A17,17,0,0,0,99.41,43Q79.07,41.65,57.76,61.35c-1,.92-1.87,1.83-2.8,2.75l24.73,47.6Z"/><path class="cls-2" d="M139.85,112.78l0-40.28-4.72,6.17-4.74,5.66v28.45c0,8.26-3.87,11.5-8.7,12.93h26.88C143.71,124.28,139.85,121,139.85,112.78Z"/><path class="cls-2" d="M21.66,0H0C4.84,1.43,12.38,4.31,12.38,13.11V112.6c0,8.44-7.54,11.68-12.38,13.11H26.89c-4.84-1.43-12.38-4.67-12.38-13.11V6.46L44.86,65.61a73.5,73.5,0,0,1,6.72-7.85Z"/><path class="cls-2" d="M115.13,65.92c-.43,1.74-.37,1.43-.64,2.41-.37,1.34.27,1.38.8,1.38s1.2-1.21,2-3.64a21.2,21.2,0,0,0,.64-9.65c-.81-4.37-2.09-7.8-4.65-10.35l-1.21,2.67c2.75,2.92,3.7,6.95,3.7,12.11A21.09,21.09,0,0,1,115.13,65.92Z"/><path class="cls-2" d="M99.89,40.37a47.62,47.62,0,0,0-7.21-.19,57.25,57.25,0,0,0-9.37,1.47A64.49,64.49,0,0,0,54,57.41c-.58.55-1.07,1.18-1.63,1.75A72.27,72.27,0,0,0,45.68,67,75.69,75.69,0,0,0,34.61,88a49.8,49.8,0,0,0-2.8,16q0,12.3,6.73,18.81,6.24,6,16.41,6a58.13,58.13,0,0,0,19.46-3.19l-2.24-4C65.55,124.68,60.77,126,54.8,126s-10.75-1.82-14.46-5.47-5.56-9-5.56-16.2q0-16.52,13.26-32.69A98.49,98.49,0,0,1,55,64.1c.93-.92,1.81-1.83,2.8-2.75Q79.06,41.66,99.41,43a15.5,15.5,0,0,1,8.89,3.15l1.18-2.59A19.28,19.28,0,0,0,99.89,40.37Z"/><path class="cls-2" d="M285.92,3.84A14.22,14.22,0,0,0,276.23,0c-14.68,0-30.55,2.36-49.88,22.25a425.55,425.55,0,0,0-59.19,77.21Q173,87.55,178.29,68.64q7.38-27,9.05-31.91,8.34-24.31,19.15-32.4a11.36,11.36,0,0,1,4.56-2.26q1.51,0,5.13,2.26a.57.57,0,0,0,.48.2,1.26,1.26,0,0,0,.64-.2c.42-.72.16-1.41-.8-2.06L210.57.49Q197-1,174.85,20.88q-9.69,9.45-30.19,34.66c-1.49,1.81-3.1,3.73-4.81,5.74-2.85,3.33-6,7-9.48,10.82-2.42,2.7-4.94,5.49-7.65,8.45l-8.09,8.67c-12.81,13.85-23.16,23.63-34.14,29.6l-3,6.18c14.5-4.78,26.91-14.11,40.42-29,4.07-4.4,8.24-9.42,12.46-14.73,1.69-2.13,3.36-4.17,5.08-6.44l4.4-5.72,11.21-14.57Q183,12.81,199,4.73c.75-.27,2-.69,3.76-1.28q-10.49,6.5-19.54,24a131.05,131.05,0,0,0-11.29,31.32q-2.16,10.83-7.69,38.9a43.29,43.29,0,0,1-3,9.84q-6.89,8.48-8,15c-.27,1.45-.11,2.3.48,2.56q2.23.89,5.2-6a72,72,0,0,0,2.81-6.69q20.82-33,36.44-52.19l13.29-16.35C236,13.69,256.58,6.2,275.43,6.2q11.29,0,14.26,8.67c0,1.11.26,1.61.8,1.48a.88.88,0,0,0,.32-.79V14.28A13.27,13.27,0,0,0,285.92,3.84Z"/><path class="cls-2" d="M130.37,0l-20,44.09-1.18,2.59-29.5,65L55.88,65.75A50.16,50.16,0,0,0,49,73.23l24.75,48.21,2.05,4,.13,0,3-6.51L111,48.27l1.21-2.66,18.21-40V69.71c3.45-3.85,6.63-7.82,9.48-11.15V13.11c0-8.44,3.86-11.68,8.7-13.11Z"/></g></g></svg>