<svg width="21" height="21" viewBox="0 0 21 21" fill="none" xmlns="http://www.w3.org/2000/svg">
<path d="M4.85275 18.2768C4.45469 18.2768 4.12258 18.1437 3.85644 17.8776C3.5903 17.6115 3.45694 17.2794 3.45636 16.8813V5.84666C3.45636 5.44917 3.58972 5.11735 3.85644 4.85121C4.12316 4.58506 4.45527 4.4517 4.85275 4.45113H6.38136V2.52417H7.312V4.45113H13.4938V2.52417H14.3579V4.45113H15.8865C16.284 4.45113 16.6161 4.58449 16.8828 4.85121C17.1495 5.11793 17.2826 5.45003 17.282 5.84752V11.5385L16.4179 12.4026V9.30394H4.32047V16.8813C4.32047 17.0138 4.37577 17.1356 4.48637 17.2468C4.59698 17.358 4.71882 17.4133 4.85189 17.4127H9.99332L10.8747 18.2768H4.85275ZM4.32047 8.43897H16.4179V5.84666C16.4179 5.71416 16.3626 5.59232 16.252 5.48114C16.1414 5.36996 16.0193 5.31466 15.8856 5.31523H4.85275C4.71968 5.31523 4.59755 5.37053 4.48637 5.48114C4.37519 5.59175 4.31989 5.71387 4.32047 5.84752V8.43897ZM14.2343 18.7089L11.865 16.3559L12.4768 15.7441L14.2292 17.4974L17.7357 13.9917L18.3475 14.6078L14.2343 18.7089Z" fill="white"/>
</svg>
