<svg width="9" height="8" viewBox="0 0 9 8" fill="none" xmlns="http://www.w3.org/2000/svg">
<g clip-path="url(#clip0_1_4612)">
<path d="M0.53892 0.741262C0.822537 0.400898 1.18692 0.164391 1.58654 0.0612957C1.98615 -0.0417994 2.40327 -0.0069096 2.78578 0.161605C3.57749 0.526789 4.08245 1.41584 4.48491 2.28315C4.85404 1.31367 5.60928 0.512298 6.51293 0.321011C7.41658 0.129724 8.43404 0.637649 8.82141 1.59771C9.28235 2.74253 8.78368 4.10617 8.09761 5.08942C7.06505 6.569 5.73002 7.37544 4.21199 8.00003L4.15917 7.99061C3.21414 7.29736 2.32327 6.51064 1.49665 5.63937C0.418812 4.4873 -0.688581 2.27156 0.53892 0.741262Z" fill="#B62025"/>
</g>
<defs>
<clipPath id="clip0_1_4612">
<rect width="9" height="8" fill="white" transform="matrix(-1 0 0 1 9 0)"/>
</clipPath>
</defs>
</svg>
