<svg width="32" height="33" viewBox="0 0 32 33" fill="none" xmlns="http://www.w3.org/2000/svg">
<g clip-path="url(#clip0_1_4739)">
<path d="M27.3177 10.3437C28.7181 13.1505 29.0164 16.3743 29.1076 19.4688C29.2029 22.8427 28.6311 26.7797 25.6232 28.8232C22.7312 30.7875 18.3394 30.5748 15.0249 30.3788C14.9895 30.375 14.9538 30.3816 14.9222 30.3979C14.8905 30.4142 14.8643 30.4395 14.8467 30.4706C12.0791 30.5123 9.07526 30.3747 6.64735 29.0693C3.80512 27.5304 2.6616 24.1981 2.40887 21.1453C1.96969 15.8696 3.03449 9.74317 7.05753 5.98971C11.0806 2.23625 17.4611 1.76499 22.1222 4.63429C24.3442 6.01848 26.1424 7.99452 27.3177 10.3437Z" fill="#F5DB44"/>
<mask id="mask0_1_4739" style="mask-type:luminance" maskUnits="userSpaceOnUse" x="-2" y="3" width="36" height="34">
<path d="M24.677 3.41211L-1.1317 13.5879L7.63408 36.1146L33.4428 25.9388L24.677 3.41211Z" fill="white"/>
</mask>
<g mask="url(#mask0_1_4739)">
<path d="M27.3178 10.3438C26.1424 7.99464 24.3442 6.0186 22.1223 4.63441L21.8985 4.50513C22.0725 4.65109 22.2383 4.79706 22.404 4.95137C26.6508 8.93838 28.5774 15.6779 25.499 20.9494C23.3238 24.7029 19.4458 26.663 15.2943 27.176C11.669 27.6222 8.1307 26.4587 4.56341 26.0541L5.34647 26.1334C4.75531 26.0574 4.17174 25.9304 3.60219 25.7539C4.24151 27.1633 5.30939 28.3317 6.65158 29.0903C9.07949 30.3956 12.0833 30.5333 14.851 30.4916C14.8685 30.4604 14.8948 30.4352 14.9264 30.4189C14.9581 30.4026 14.9938 30.3959 15.0291 30.3998C18.3437 30.5958 22.7313 30.8169 25.6233 28.8442C28.6312 26.8007 29.203 22.8637 29.1077 19.4898C29.0165 16.3952 28.7182 13.1714 27.3178 10.3647" fill="#F5DB44"/>
</g>
<mask id="mask1_1_4739" style="mask-type:luminance" maskUnits="userSpaceOnUse" x="-1" y="5" width="17" height="18">
<path d="M10.3989 5.25372L-0.507072 9.55371L4.46287 22.3257L15.3689 18.0257L10.3989 5.25372Z" fill="white"/>
</mask>
<g mask="url(#mask1_1_4739)">
<path d="M9.71745 5.55206C7.15281 6.17763 5.49553 9.99365 4.86991 12.2833C4.50497 13.727 4.29796 15.2066 4.25258 16.6957C4.178 18.4723 4.02056 20.5617 4.44316 22.2966C4.44316 22.3217 4.49288 22.3217 4.49703 22.2966C4.72904 20.6284 4.64618 18.9227 4.91134 17.2336C5.11667 15.8243 5.468 14.4405 5.95957 13.1048C6.37908 11.8459 6.97479 10.6537 7.72872 9.56408C8.07648 9.08903 8.46614 8.64655 8.89295 8.24203C9.42328 7.76242 10.0738 7.44547 10.5502 6.9033C10.6641 6.769 10.7326 6.60182 10.746 6.4258C10.7595 6.24979 10.7171 6.07402 10.625 5.92381C10.5328 5.77359 10.3957 5.65666 10.2334 5.58986C10.0711 5.52306 9.89187 5.50982 9.72159 5.55206" fill="white"/>
</g>
<path d="M7.03269 19.0515C7.17356 20.1483 6.58937 21.2285 5.4417 21.3828C5.17376 21.4104 4.90305 21.3822 4.64639 21.3C4.38972 21.2178 4.1526 21.0834 3.94976 20.905C3.74692 20.7266 3.58269 20.5082 3.46729 20.2632C3.35189 20.0183 3.28779 19.752 3.27896 19.481C3.24995 18.4384 4.14903 17.1831 5.28841 17.4542C5.30723 17.4584 5.32671 17.4587 5.34565 17.455C5.36459 17.4514 5.38257 17.4438 5.3985 17.4329C5.41442 17.4219 5.42795 17.4078 5.43823 17.3914C5.44851 17.375 5.45533 17.3566 5.45828 17.3374C5.87445 17.4021 6.25658 17.6068 6.54247 17.918C6.82835 18.2293 7.00113 18.6288 7.03269 19.0515Z" fill="#CF373D"/>
<path d="M28.4157 18.7138C28.4227 18.9849 28.3744 19.2546 28.2736 19.5062C28.1729 19.7577 28.0219 19.9858 27.83 20.1762C27.6381 20.3666 27.4094 20.5153 27.1581 20.6131C26.9068 20.7109 26.6382 20.7558 26.369 20.7448C25.213 20.6572 24.5667 19.6188 24.6371 18.5136C24.6435 18.0896 24.7924 17.6803 25.0595 17.3524C25.3266 17.0244 25.6961 16.7972 26.1079 16.7078C26.1118 16.7266 26.1195 16.7445 26.1304 16.7603C26.1414 16.7762 26.1555 16.7895 26.1717 16.7997C26.188 16.8098 26.2062 16.8165 26.2252 16.8194C26.2441 16.8222 26.2634 16.8211 26.2819 16.8162C27.4047 16.4742 28.3784 17.6711 28.4157 18.7138Z" fill="#CF373D"/>
<path d="M28.7347 18.4677C28.775 18.7837 28.7508 19.1046 28.6635 19.4107C28.5762 19.7169 28.4278 20.0019 28.2272 20.2483C28.0267 20.4947 27.7783 20.6972 27.4972 20.8436C27.2162 20.9899 26.9084 21.0769 26.5927 21.0993C25.1467 21.1535 24.2145 19.8482 24.314 18.4928C24.3927 17.4043 25.3166 16.2157 26.4394 16.4492C27.5374 16.1197 28.6022 17.471 28.7347 18.4803M26.369 20.7574C26.6382 20.7683 26.9068 20.7235 27.1581 20.6257C27.4094 20.5278 27.6381 20.3791 27.83 20.1887C28.0219 19.9983 28.1729 19.7702 28.2736 19.5187C28.3744 19.2671 28.4228 18.9974 28.4157 18.7263C28.3784 17.6837 27.4048 16.4868 26.282 16.8246C26.2637 16.8302 26.2445 16.8319 26.2256 16.8296C26.2067 16.8273 26.1884 16.821 26.172 16.8112C26.1556 16.8014 26.1415 16.7882 26.1304 16.7726C26.1194 16.7569 26.1118 16.7391 26.108 16.7203C25.6982 16.8093 25.3302 17.0346 25.0634 17.36C24.7965 17.6854 24.6463 18.0918 24.6371 18.5136C24.5626 19.6188 25.213 20.6573 26.369 20.7448" fill="#CF373D"/>
<path d="M7.35582 19.014C7.53812 20.3736 6.68877 21.7207 5.23865 21.754C4.92178 21.7508 4.6089 21.6824 4.31925 21.553C4.0296 21.4237 3.76929 21.236 3.55431 21.0017C3.33934 20.7673 3.17425 20.4912 3.06918 20.1903C2.9641 19.8893 2.92128 19.5699 2.94332 19.2517C3.00961 18.2341 3.99155 16.8245 5.11021 17.0831C6.21644 16.7786 7.21081 17.9172 7.35582 18.9932M5.43752 21.3787C6.58933 21.2244 7.17352 20.1275 7.03265 19.0474C6.99842 18.6269 6.82444 18.2303 6.53879 17.9216C6.25313 17.6129 5.87248 17.41 5.45824 17.3458C5.4553 17.365 5.44848 17.3834 5.43819 17.3998C5.42791 17.4162 5.41439 17.4303 5.39846 17.4413C5.38254 17.4522 5.36455 17.4598 5.34561 17.4634C5.32668 17.4671 5.30719 17.4668 5.28837 17.4626C4.14899 17.1915 3.24992 18.4468 3.27892 19.4894C3.28719 19.7602 3.35078 20.0264 3.46573 20.2713C3.58068 20.5163 3.74451 20.7348 3.94703 20.9132C4.14955 21.0916 4.38641 21.2262 4.64285 21.3084C4.89928 21.3906 5.16979 21.4188 5.43752 21.3912" fill="#CF373D"/>
<path d="M23.8416 5.31414C28.8383 9.35536 30.1807 16.3827 29.4349 22.5258C29.0869 25.3701 27.7777 28.2436 25.1674 29.6157C22.2672 31.1171 18.4513 31.0253 15.2735 30.8418C12.0294 31.1171 8.00634 30.8418 5.44999 28.8024C2.74448 26.663 1.97799 23.0638 1.89513 19.7775C1.76669 14.1306 3.32868 7.77474 8.26736 4.4717C13.0403 1.28126 19.4208 1.74002 23.8416 5.3058M29.1118 19.4688C29.0206 16.3743 28.7223 13.1505 27.3219 10.3438C26.1454 7.99403 24.3457 6.01794 22.1222 4.63435C17.4611 1.76504 11.1096 2.21545 7.05755 5.98976C3.00551 9.76407 1.96971 15.8697 2.41303 21.1454C2.66576 24.1982 3.80929 27.5304 6.65152 29.0693C9.07943 30.3747 12.0832 30.5123 14.8509 30.4706C14.8685 30.4395 14.8947 30.4143 14.9263 30.398C14.958 30.3817 14.9937 30.375 15.029 30.3789C18.3436 30.5749 22.7312 30.7959 25.6232 28.8233C28.6311 26.7797 29.2029 22.8428 29.1076 19.4688" fill="#581D74"/>
<path d="M24.4465 15.0397C24.4838 15.3233 24.0321 15.3233 24.0073 15.0397C23.93 14.5084 23.6521 14.0277 23.2315 13.6975C22.8109 13.3674 22.2799 13.2132 21.7492 13.2672C20.7217 13.4132 20.1293 14.3349 19.9635 15.2899C19.9635 15.3566 19.8517 15.3358 19.8475 15.2899C19.8108 14.6885 20.0098 14.0967 20.4018 13.6413C20.7937 13.186 21.3474 12.9034 21.944 12.8543C22.5544 12.841 23.1478 13.0578 23.6077 13.4621C24.0676 13.8664 24.3608 14.429 24.4299 15.0397" fill="#581D74"/>
<path d="M9.38191 13.2382C9.98054 13.2502 10.5506 13.498 10.9697 13.9285C11.3888 14.3589 11.6235 14.9376 11.6234 15.5403C11.6234 15.6029 11.5239 15.6279 11.5074 15.5403C11.2878 14.5978 10.6373 13.7136 9.60564 13.6261C9.07166 13.6037 8.54977 13.79 8.14904 14.146C7.74831 14.502 7.49976 15 7.45533 15.5361C7.42633 15.8114 6.99543 15.8323 7.01615 15.5361C7.04902 14.92 7.31027 14.3387 7.7483 13.907C8.18632 13.4754 8.76925 13.2248 9.38191 13.2048" fill="#581D74"/>
<path d="M20.9704 23.635L20.9497 23.66C20.3266 24.3442 19.54 24.8567 18.6648 25.1486C17.7895 25.4406 16.8545 25.5024 15.9488 25.3282C14.8587 25.1675 13.8142 24.7782 12.8829 24.1855C14.8882 21.2661 18.5798 21.0618 20.9704 23.6224" fill="#CF373D"/>
<path d="M23.1 18.6178C23.0985 18.5951 23.0924 18.5729 23.082 18.5527C23.0717 18.5324 23.0573 18.5145 23.0399 18.5001C23.0224 18.4856 23.0022 18.4749 22.9805 18.4686C22.9587 18.4623 22.936 18.4606 22.9135 18.4635C22.8798 18.4349 22.8374 18.4187 22.7934 18.4176C20.5436 18.3592 18.2732 18.4926 16.0193 18.5427C13.7654 18.5927 11.4866 18.5427 9.24929 18.7721C9.22563 18.7732 9.20288 18.7815 9.18408 18.796C9.16528 18.8105 9.15133 18.8304 9.14411 18.8531C9.1369 18.8758 9.13676 18.9002 9.14371 18.923C9.15066 18.9458 9.16437 18.9659 9.183 18.9806C9.37358 22.9593 13.1149 25.7285 16.8686 25.8619C20.5395 25.9912 23.6925 22.2503 23.0834 18.6178M20.9497 23.6599C20.3266 24.3441 19.54 24.8566 18.6648 25.1486C17.7895 25.4406 16.8545 25.5024 15.9488 25.3281C14.8587 25.1674 13.8141 24.7781 12.8829 24.1854C14.8882 21.266 18.5798 21.0617 20.9704 23.6224L20.9497 23.6474" fill="#581D74"/>
</g>
<defs>
<clipPath id="clip0_1_4739">
<rect width="31.4066" height="32.3881" fill="white" transform="translate(0 0.0981445)"/>
</clipPath>
</defs>
</svg>
