<svg width="16" height="16" viewBox="0 0 16 16" fill="none" xmlns="http://www.w3.org/2000/svg">
<path d="M8 4.25C7.55499 4.25 7.11998 4.38196 6.74997 4.62919C6.37996 4.87643 6.09157 5.22783 5.92127 5.63896C5.75097 6.0501 5.70642 6.5025 5.79323 6.93895C5.88005 7.37541 6.09434 7.77632 6.40901 8.09099C6.72368 8.40566 7.12459 8.61995 7.56105 8.70677C7.9975 8.79358 8.4499 8.74903 8.86104 8.57873C9.27217 8.40843 9.62357 8.12004 9.87081 7.75003C10.118 7.38002 10.25 6.94501 10.25 6.5C10.25 5.90326 10.0129 5.33097 9.59099 4.90901C9.16903 4.48705 8.59674 4.25 8 4.25ZM8 8.25C7.65388 8.25 7.31554 8.14736 7.02775 7.95507C6.73997 7.76278 6.51566 7.48947 6.38321 7.1697C6.25076 6.84993 6.2161 6.49806 6.28363 6.15859C6.35115 5.81913 6.51782 5.50731 6.76256 5.26256C7.00731 5.01782 7.31913 4.85115 7.65859 4.78363C7.99806 4.7161 8.34993 4.75076 8.6697 4.88321C8.98947 5.01566 9.26278 5.23997 9.45507 5.52775C9.64736 5.81554 9.75 6.15388 9.75 6.5C9.75 6.72981 9.70473 6.95738 9.61679 7.1697C9.52884 7.38202 9.39994 7.57493 9.23744 7.73744C9.07493 7.89994 8.88202 8.02884 8.6697 8.11679C8.45738 8.20473 8.22981 8.25 8 8.25ZM8 1.25C6.60807 1.25149 5.27358 1.80509 4.28933 2.78933C3.30509 3.77358 2.75149 5.10807 2.75 6.5C2.75 8.40125 3.63563 10.4244 5.3125 12.3512C6.0711 13.2278 6.9249 14.0173 7.85813 14.705C7.9001 14.7343 7.95006 14.75 8.00125 14.75C8.05244 14.75 8.1024 14.7343 8.14437 14.705C9.07673 14.0171 9.92968 13.2277 10.6875 12.3512C12.3631 10.4244 13.25 8.40125 13.25 6.5C13.2485 5.10807 12.6949 3.77358 11.7107 2.78933C10.7264 1.80509 9.39193 1.25149 8 1.25ZM10.3188 12.0144C9.62028 12.8143 8.84349 13.5423 8 14.1875C7.15638 13.5415 6.37959 12.8127 5.68125 12.0119C4.57188 10.7375 3.25 8.74375 3.25 6.5C3.25 5.24022 3.75045 4.03204 4.64124 3.14124C5.53204 2.25044 6.74022 1.75 8 1.75C9.25978 1.75 10.468 2.25044 11.3588 3.14124C12.2496 4.03204 12.75 5.24022 12.75 6.5C12.75 8.74375 11.4281 10.7375 10.3188 12.0144Z" fill="#B62025"/>
</svg>
