<svg width="28" height="30" viewBox="0 0 28 30" fill="none" xmlns="http://www.w3.org/2000/svg">
<g clip-path="url(#clip0_1_4720)">
<path d="M25.7831 8.36152C27.1592 11.2201 27.4228 14.4883 27.4562 17.6256C27.5106 21.0374 26.8832 25.0192 23.8171 27.0502C20.8892 29.001 16.4511 28.7392 13.1049 28.4859C13.0692 28.482 13.0331 28.4887 13.0012 28.5052C12.9692 28.5217 12.9427 28.5473 12.925 28.5788C10.1309 28.5788 7.09829 28.4099 4.66387 27.0544C1.84881 25.4626 0.723628 22.055 0.50612 18.9811C0.125481 13.6312 1.27995 7.44102 5.38332 3.69568C9.4867 -0.0496632 15.9408 -0.446577 20.6089 2.51338C22.8344 3.9444 24.6249 5.96821 25.7831 8.36152Z" fill="#F5DB44"/>
<mask id="mask0_1_4720" style="mask-type:luminance" maskUnits="userSpaceOnUse" x="1" y="0" width="34" height="37">
<path d="M18.6469 0.956256L1.09253 24.3958L17.1416 36.6442L34.696 13.2047L18.6469 0.956256Z" fill="white"/>
</mask>
<g mask="url(#mask0_1_4720)">
<path d="M25.7831 8.36136C24.6249 5.96805 22.8344 3.94424 20.6089 2.51322C20.5378 2.46677 20.4625 2.42455 20.3872 2.38232C20.5587 2.53011 20.726 2.68212 20.8892 2.84257C25.1264 6.92994 26.9877 13.7788 23.8171 19.078C21.571 22.8276 17.6307 24.7826 13.4311 25.2471C9.76695 25.6693 6.21153 24.4321 2.61428 23.9803L3.40484 24.0732C2.80906 23.9798 2.2216 23.8386 1.64804 23.651C2.28326 25.0713 3.34587 26.2533 4.68479 27.0289C7.11921 28.3844 10.1518 28.5617 12.9459 28.5533C12.9637 28.5218 12.9901 28.4962 13.0221 28.4797C13.0541 28.4632 13.0901 28.4565 13.1258 28.4604C16.4721 28.7053 20.8975 28.9755 23.8381 27.0247C26.9041 25.0106 27.5315 21.0372 27.4771 17.6255C27.4228 14.4882 27.1592 11.22 25.804 8.36136" fill="#F5DB44"/>
</g>
<mask id="mask1_1_4720" style="mask-type:luminance" maskUnits="userSpaceOnUse" x="-3" y="2" width="16" height="19">
<path d="M7.49673 2.44526L-2.75238 16.1304L2.58287 20.2021L12.832 6.51703L7.49673 2.44526Z" fill="white"/>
</mask>
<g mask="url(#mask1_1_4720)">
<path d="M8.07708 3.28603C5.49208 3.89829 3.73947 7.72808 3.10367 10.0378C2.71748 11.4947 2.49026 12.9899 2.42605 14.4967C2.32985 16.2955 2.1458 18.4067 2.55154 20.1717C2.55154 20.1784 2.55418 20.1849 2.55889 20.1896C2.56359 20.1944 2.56998 20.1971 2.57663 20.1971C2.58329 20.1971 2.58967 20.1944 2.59438 20.1896C2.59909 20.1849 2.60173 20.1784 2.60173 20.1717C2.86107 18.4827 2.79833 16.7557 3.09531 15.0499C3.32119 13.6257 3.69266 12.2291 4.20376 10.8823C4.63989 9.61301 5.25557 8.41408 6.03167 7.32272C6.38946 6.84868 6.78993 6.40908 7.22796 6.00953C7.76755 5.53239 8.42844 5.2157 8.9011 4.671C9.01963 4.53548 9.09195 4.36514 9.10742 4.18503C9.12289 4.00492 9.0807 3.82456 8.98705 3.67046C8.8934 3.51637 8.75324 3.39668 8.58717 3.32899C8.42111 3.26131 8.23792 3.24921 8.06453 3.29447" fill="white"/>
</g>
<path d="M22.3448 3.22692C27.3391 7.38185 28.6191 14.5136 27.7825 20.7249C27.3642 23.5962 26.0466 26.4886 23.3696 27.8398C20.4416 29.3219 16.5725 29.1825 13.3642 28.9545C10.089 29.191 6.02749 28.8489 3.47595 26.7673C0.769647 24.5885 0.0418307 20.9149 0.00418503 17.5876C-0.0669234 11.8703 1.59785 5.45217 6.62564 2.17553C11.4694 -0.995556 17.9193 -0.450856 22.3448 3.22692ZM27.4855 17.6256C27.4311 14.4883 27.1676 11.2201 25.8124 8.36146C24.6449 5.96524 22.8442 3.94135 20.6089 2.51333C15.9408 -0.442411 9.52435 -0.0750553 5.38333 3.69562C1.24231 7.4663 0.125488 13.6311 0.506127 18.981C0.723635 22.055 1.84882 25.4625 4.68479 27.0544C7.11921 28.4098 10.1518 28.5871 12.9459 28.5787C12.9637 28.5472 12.9901 28.5216 13.0221 28.5051C13.0541 28.4886 13.0901 28.4819 13.1258 28.4858C16.4721 28.7307 20.8975 29.0009 23.8381 27.0502C26.9041 25.0107 27.5315 21.0373 27.4771 17.6256" fill="#581D74"/>
<path d="M20.5754 18.3435C20.5811 18.3463 20.5861 18.3503 20.5901 18.3551C20.5942 18.36 20.5972 18.3656 20.599 18.3717C20.6009 18.3778 20.6014 18.3842 20.6007 18.3905C20.6 18.3968 20.598 18.4029 20.5948 18.4084C20.5917 18.4138 20.5874 18.4186 20.5824 18.4224C20.5773 18.4262 20.5715 18.4289 20.5654 18.4303C20.5593 18.4318 20.5529 18.4319 20.5467 18.4308C20.5405 18.4296 20.5347 18.4272 20.5294 18.4237C16.9322 16.9163 13.0003 17.4525 10.6203 20.8263C10.4571 21.0627 10.0639 20.8263 10.2312 20.6067C12.5151 17.3343 17.1622 15.886 20.5754 18.3435Z" fill="#581D74"/>
<path d="M25.6911 11.009C26.1093 12.8289 24.9298 14.8768 22.9806 15.0119C20.4709 15.1893 19.8518 12.9556 19.9731 10.9035C19.9731 10.6163 20.4374 10.6037 20.4207 10.9035C20.3203 12.6262 20.6884 14.6277 22.83 14.5728C24.6788 14.5264 25.4777 12.6642 25.5363 11.0386C25.5363 10.9584 25.6701 10.9288 25.6911 11.0175" fill="#581D74"/>
<path d="M11.62 11.0765C11.8124 13.1202 11.2519 15.375 8.75888 15.299C6.80549 15.2357 5.54227 13.2342 5.91036 11.3975C5.91036 11.3046 6.05676 11.3299 6.06095 11.3975C6.17807 13.0189 7.04392 14.8514 8.89274 14.8303C11.0511 14.7923 11.3313 12.7655 11.1724 11.0765C11.1431 10.7852 11.5907 10.781 11.62 11.0765Z" fill="#581D74"/>
<path d="M10.8629 21.2105C10.882 21.2211 10.8976 21.2372 10.9075 21.2568C10.9175 21.2764 10.9213 21.2986 10.9186 21.3205C10.9159 21.3423 10.9068 21.3629 10.8923 21.3794C10.8779 21.396 10.8589 21.4077 10.8378 21.4132C10.7049 21.4221 10.5717 21.4009 10.448 21.3512C10.3243 21.3015 10.2131 21.2246 10.1225 21.1261C9.9293 20.9359 9.81301 20.6801 9.79623 20.4083C9.79623 20.3407 9.89662 20.3238 9.91335 20.4083C9.98471 20.6247 10.117 20.8154 10.294 20.9572C10.4731 21.0677 10.6658 21.1543 10.867 21.2147" fill="#581D74"/>
</g>
<defs>
<clipPath id="clip0_1_4720">
<rect width="28" height="29" fill="white" transform="translate(0 0.0981445)"/>
</clipPath>
</defs>
</svg>
