<svg xmlns="http://www.w3.org/2000/svg" xmlns:xlink="http://www.w3.org/1999/xlink" viewBox="0 0 25.35 24.64"><defs><style>.cls-1{fill:none;}.cls-2{clip-path:url(#clip-path);}.cls-3{fill:#b62025;}</style><clipPath id="clip-path" transform="translate(0 0)"><rect class="cls-1" width="25.35" height="24.64"/></clipPath></defs><g id="Layer_2" data-name="Layer 2"><g id="carr_right"><g class="cls-2"><path class="cls-3" d="M14.79,7.94v.47A8.09,8.09,0,0,0,9.4,13.47a7.5,7.5,0,0,0,0,5.3,7.93,7.93,0,0,0,15.36-3.43,8,8,0,0,0-8.66-7.19c0-.14,0-.28,0-.51l1.85,0c-.05-1-.1-2-.15-3,.8-.32,1.49-.62,2.2-.86a1.27,1.27,0,0,1,.79,0c1,.38,1.94.8,2.95,1.22.2.54.44,1.09.62,1.66.29.93.21,1.16-.54,1.75L22.34,9.57a8.59,8.59,0,0,1,3,6.67,8.23,8.23,0,0,1-2,5.31,8.49,8.49,0,0,1-15-6.47c.52-3.72,3.35-6.83,6.38-7.14m5-1.39c0,.59,0,1.07-.05,1.54L21,8.68l.9-1.21-2.12-.92M18.39,5.48l-.16.06c.08.72.17,1.44.26,2.17l.88.26c0-.64,0-1.21,0-1.76l-.94-.73m1.93-.24c0-.42-.05-.78-.08-1.24l-1.82.89,1.17,1,.73-.67m2.51,1.92,1.23.26c-.22-.76-.41-1.4-.63-2.13l-.81.7c.08.43.15.79.21,1.17m-2.1-1.69c-.24.25-.41.42-.64.68l2.31,1c-.1-.49-.16-.8-.24-1.14l-1.43-.54m1.8,2.1L21.36,8.86l.56.36,1.93-1.37-1.32-.28M20.75,5l1.51.67c.21-.17.41-.35.71-.61l-2.29-.84c0,.35.05.54.07.78" transform="translate(0 0)"/><path class="cls-3" d="M16.2,9.19A6.83,6.83,0,0,1,23.82,14a7.21,7.21,0,1,1-14,3.34c-.64-3.76,1.87-7.29,5-7.85a7.37,7.37,0,0,0-4.22,4.27,6.4,6.4,0,0,0,.71,6,6.62,6.62,0,0,0,7.86,2.6A6.78,6.78,0,0,0,16.2,9.19" transform="translate(0 0)"/><path class="cls-3" d="M2,4.62.19,4.23A1.82,1.82,0,0,1,.54,2.09C1.22,1.42,1.87.73,2.58,0L4.13.06,4.77,2a7.72,7.72,0,0,1,8.37.43,7.34,7.34,0,0,1,3.17,5.26c.62,4.86-3.15,8.21-6.11,8.48,0-.09,0-.18-.06-.34a7.38,7.38,0,0,0,5.34-4.64,6.93,6.93,0,0,0,.09-4.71A7.23,7.23,0,0,0,1.46,8.68c0,3,2,6.9,7.27,7.33,0,.11,0,.22-.07.33C4.05,16.68-1.41,11,2,4.62M3.64.47l-.92,0L.41,2.81c0,.23,0,.42.06.69a5.46,5.46,0,0,0,3.17-3M1,3.77a.86.86,0,0,1,0,.16l1.32.28c.1-.16.19-.3.31-.47l-.75-.4L1,3.77M3.87,1l-.42.72.42,1c.69-.61.16-1.12,0-1.68M3,3.46l.52-.52c-.12-.27-.22-.48-.35-.79L2.28,3,3,3.46" transform="translate(0 0)"/><path class="cls-3" d="M10,14.7a6.11,6.11,0,0,0,4.42-4,5.86,5.86,0,0,0-.18-4.26A6.21,6.21,0,0,0,5.92,3.22c1.49-1.28,4.6-1.08,6.45.18a6.41,6.41,0,0,1,2.35,7.53c-.9,2.2-3.18,4.09-4.7,3.77" transform="translate(0 0)"/><path class="cls-3" d="M8.93,14.93a1.07,1.07,0,0,1-.32.16A5.39,5.39,0,0,1,6,14.51,6.38,6.38,0,0,1,3.55,5a4.08,4.08,0,0,1,.91-.84C2.85,6.23,2.18,8.47,3.23,11a6.41,6.41,0,0,0,5.7,4" transform="translate(0 0)"/></g></g></g></svg>