<svg xmlns="http://www.w3.org/2000/svg" xmlns:xlink="http://www.w3.org/1999/xlink" viewBox="0 0 23.95 30.27"><defs><style>.cls-1{fill:none;}.cls-2{clip-path:url(#clip-path);}.cls-3{fill:#b62025;}</style><clipPath id="clip-path" transform="translate(0 0)"><rect class="cls-1" width="23.95" height="30.27"/></clipPath></defs><g id="Layer_2" data-name="Layer 2"><g id="carr_right"><g class="cls-2"><path class="cls-3" d="M0,26.09c1.49-.16,2.87.45,4.34.64.42-3.13.84-6.22,1.26-9.33-1.44-.55-1.78-1.73-1.72-3.09.06-1.12.21-2.23.32-3.35s.23-2.18.34-3.28c.1-.94.19-1.88.3-2.81A.9.9,0,0,1,5.62,4a10.59,10.59,0,0,1,2.1-.13,7.8,7.8,0,0,1,3,.78,3.88,3.88,0,0,1,.87.58,1,1,0,0,1,.31,1.07c-.8,3.1-1.55,6.22-2.37,9.32A4,4,0,0,1,8.77,17a2.45,2.45,0,0,1-.94.56,4.7,4.7,0,0,1-.9.19L5.18,27.18c.66.12,1.25.2,1.81.35a2.5,2.5,0,0,1,1.53.69,1.53,1.53,0,0,1-1.25.17,25.92,25.92,0,0,1-6.1-1.3,9.16,9.16,0,0,1-1-.42C0,26.55,0,26.53,0,26.09M5.22,5.41c-.11,1-.19,1.84-.3,2.71-.15,1.33-.33,2.66-.47,4a19.9,19.9,0,0,0-.16,2.3A2.75,2.75,0,0,0,5.58,17a3.14,3.14,0,0,1,.44.41c-.49,3.25-1,6.52-1.48,9.79a15.84,15.84,0,0,0-3.71-.7,21.72,21.72,0,0,0,6.29,1.55l0-.13L5,27.32C5.69,24,6,20.64,6.65,17.4a.91.91,0,0,1,.22-.06l.2,0A2,2,0,0,0,8.89,16a9.09,9.09,0,0,0,.43-1.24C10,12.19,10.62,9.61,11.26,7a4.29,4.29,0,0,0,.06-.53,9,9,0,0,1-6.1-1.1m.15-.73a1.71,1.71,0,0,0,1,.84,8.49,8.49,0,0,0,4.25.68.83.83,0,0,0,.77-.38c-.76-1.36-5-2.16-6.06-1.14" transform="translate(0 0)"/><path class="cls-3" d="M19.62,28.43q-.86-4.59-1.72-9.23l-.28-.06a2.45,2.45,0,0,1-2.31-2.09C14.5,14,13.78,10.91,13,7.85a1.13,1.13,0,0,1,.55-1.4,7.83,7.83,0,0,1,1.61-.74,8.52,8.52,0,0,1,3.25-.42,4.21,4.21,0,0,1,.71.12A1,1,0,0,1,20,6.47l.69,7c.08.78.22,1.57.25,2.35a5.16,5.16,0,0,1-.22,1.56,2.1,2.1,0,0,1-1.49,1.48c.43,3.24.85,6.46,1.29,9.72.57,0,1.16-.09,1.74-.08s1.15-.16,1.67.24c.12.43-.2.56-.49.62-.71.16-1.42.29-2.14.4-1.26.18-2.53.34-3.79.5a1.31,1.31,0,0,1-1.11-.17,3.29,3.29,0,0,1,.63-.48c.82-.38,1.64-.73,2.59-1.14M13.46,8c.12.51.22,1,.33,1.39.62,2.46,1.22,4.91,1.85,7.36a2.45,2.45,0,0,0,2.42,2.12s0,0,.15.08c.53,3.24,1.06,6.54,1.6,9.86a7.91,7.91,0,0,0-2,1,7.92,7.92,0,0,0,1.39-.09l1.44-.19,1.37-.2c1-.12,1-.12,1.3-.4h-3c-.11-1.73-.49-3.35-.73-5s-.47-3.35-.7-5a6.18,6.18,0,0,1,.54-.44,2.61,2.61,0,0,0,1.1-1.8,11,11,0,0,0-.09-3c-.14-1.38-.32-2.75-.48-4.13-.1-.83-.2-1.67-.3-2.55A9,9,0,0,1,13.46,8m-.08-.64a1.37,1.37,0,0,0,.93.36,12.71,12.71,0,0,0,1.38,0,7.45,7.45,0,0,0,3.19-.93c.25-.16.53-.31.58-.64-1.23-.94-5.31-.14-6.08,1.22" transform="translate(0 0)"/><path class="cls-3" d="M13,4A23.33,23.33,0,0,1,12.77,0l.14,0c.07.08.19.16.2.26A7.79,7.79,0,0,1,13,4" transform="translate(0 0)"/><path class="cls-3" d="M10,1A5.61,5.61,0,0,1,11.42,3.6,4.63,4.63,0,0,1,10,1" transform="translate(0 0)"/><path class="cls-3" d="M16.18,1.11a4.81,4.81,0,0,1-1.55,2.47c-.05-.59.38-.92.63-1.32a3.42,3.42,0,0,1,.92-1.15" transform="translate(0 0)"/></g></g></g></svg>