<svg width="46" height="29" viewBox="0 0 46 29" fill="none" xmlns="http://www.w3.org/2000/svg">
<g clip-path="url(#clip0_1_4588)">
<mask id="mask0_1_4588" style="mask-type:luminance" maskUnits="userSpaceOnUse" x="-8" y="-8" width="65" height="49">
<path d="M56.2162 -7.31335H-7.16934V40.7155H56.2162V-7.31335Z" fill="white"/>
</mask>
<g mask="url(#mask0_1_4588)">
<path d="M22.985 28.2315C20.2738 28.2221 17.6263 27.3893 15.3771 25.8383C13.128 24.2872 11.3782 22.0877 10.3491 19.5179C9.32007 16.948 9.0579 14.1232 9.59577 11.4007C10.1336 8.67814 11.4474 6.18017 13.3709 4.22263C15.2945 2.2651 17.7414 0.93592 20.4022 0.403181C23.063 -0.129557 25.8183 0.158071 28.3196 1.22969C30.8208 2.30132 32.9558 4.10881 34.4544 6.42359C35.9531 8.73838 36.7481 11.4565 36.739 14.2342C36.7411 16.0809 36.3861 17.9098 35.6945 19.6152C35.0029 21.3205 33.9884 22.8686 32.7096 24.1701C31.4307 25.4715 29.913 26.5005 28.2438 27.1976C26.5747 27.8946 24.7874 28.2461 22.985 28.2315ZM36.2159 14.1396C36.2424 12.3803 35.9295 10.6329 35.2954 8.99778C34.6612 7.36261 33.7181 5.87181 32.5203 4.6109C31.3225 3.34999 29.8935 2.34379 28.3153 1.65001C26.7371 0.956224 25.0407 0.588516 23.3234 0.567975C20.688 0.492788 18.0905 1.22412 15.8626 2.66858C13.6348 4.11304 11.8777 6.20507 10.8158 8.67749C9.75393 11.1499 9.4354 13.8905 9.90092 16.5493C10.3664 19.208 11.5949 21.6643 13.4293 23.6044C15.2638 25.5445 17.6211 26.8803 20.2 27.4413C22.779 28.0023 25.4627 27.763 27.9083 26.7539C30.3539 25.7449 32.4504 24.0119 33.9302 21.7763C35.4099 19.5407 36.2057 16.9039 36.2159 14.2027" fill="#B62025"/>
<path d="M27.862 22.4781C26.8523 23.169 25.7194 23.6489 24.5284 23.8905C23.3374 24.1321 22.1116 24.1306 20.9211 23.8861C19.7307 23.6416 18.599 23.1588 17.5909 22.4655C16.5828 21.7722 15.7181 20.882 15.0464 19.8458C11.9694 15.2115 13.5079 9.19021 17.0156 6.9519L16.4618 7.61394C15.3039 8.88078 14.4874 10.4343 14.0925 12.1221C13.553 14.5346 13.9581 17.0677 15.2208 19.1777C16.4835 21.2877 18.5032 22.8065 20.8465 23.4081C23.2161 24.01 25.7199 23.6781 27.862 22.4781Z" fill="#B62025"/>
<path d="M22.0619 4.68202C26.1696 4.49287 29.5389 5.87998 31.5235 9.74184C32.3856 11.3461 32.7585 13.1784 32.594 15.0019C32.4294 16.8255 31.735 18.5567 30.6004 19.9718C31.6081 18.4615 32.1751 16.6884 32.2351 14.86C32.295 13.0315 31.8454 11.2234 30.9389 9.64726C30.1118 8.00653 28.8244 6.65691 27.2424 5.77204C25.6604 4.88718 23.8562 4.50755 22.0619 4.68202Z" fill="#B62025"/>
<path d="M8.56936 17.1346C8.328 19.8566 7.31756 22.4475 5.66162 24.5903L5.01545 24.1175C4.61688 23.8849 4.31255 23.5141 4.15739 23.0718C4.00223 22.6296 4.00645 22.1451 4.16929 21.7058C4.33852 21.1856 4.47698 20.6497 4.64622 20.1295C3.60005 19.83 3.41543 18.9315 3.20004 18.0488C3.14564 17.7843 3.11475 17.5152 3.10773 17.2449C2.91009 14.3368 2.22846 11.4846 1.09232 8.81189C0.81539 8.1341 0.600002 7.42478 0.30769 6.62088C0.584617 6.62088 0.738465 6.62088 0.861544 6.62088C1.35118 6.86612 1.81513 7.16189 2.24618 7.50359C4.05696 9.10228 5.45693 11.132 6.32317 13.4146C6.32317 13.4146 6.32317 13.4934 6.32317 13.6195L3.76928 10.9083L3.60005 11.0029C3.65791 11.1221 3.73028 11.2333 3.81544 11.3339C4.75391 12.5004 5.70777 13.6668 6.63086 14.8332C6.98472 15.2904 7.27703 15.7948 7.61549 16.2834C7.72319 16.441 7.78473 16.6775 8.13858 16.5198C7.99993 16.2226 7.84586 15.9332 7.67703 15.6529C7.27528 15.0583 6.96403 14.4045 6.75394 13.7141C5.92388 11.1904 4.44663 8.94186 2.47695 7.2041C1.98866 6.84873 1.4743 6.53254 0.938469 6.25834C0.786513 6.1528 0.600472 6.11188 0.419625 6.14423C0.238778 6.17658 0.0772787 6.27967 -0.030777 6.43173C0.0170407 6.74567 0.083837 7.05627 0.169226 7.36173C0.430769 8.10258 0.707696 8.84342 1.01539 9.5685C1.99188 11.9637 2.56413 14.5115 2.70773 17.1031C2.70773 17.371 2.70773 17.639 2.70773 17.907C2.74046 18.3907 2.86923 18.8625 3.08615 19.2934C3.30308 19.7244 3.60359 20.1054 3.96928 20.4132C3.86159 21.0753 3.73851 21.7058 3.66159 22.352C3.62297 22.6439 3.65623 22.941 3.75834 23.2163C3.86045 23.4916 4.02817 23.7364 4.24621 23.9283L5.35392 25.0317C5.75393 25.0317 5.93855 24.7164 6.13855 24.4485C7.04115 23.2864 7.74356 21.9751 8.2155 20.5709C8.48319 19.6701 8.67366 18.7471 8.78474 17.8124C8.82253 17.5987 8.82253 17.3798 8.78474 17.1661H8.60013" fill="#B62025"/>
<path d="M34.6159 27.2069C34.0005 26.6867 34.1544 26.0562 34.3544 25.473C34.4973 25.1466 34.6618 24.8306 34.8467 24.5272C36.6006 21.154 38.3544 17.7965 40.0929 14.4233C40.1367 14.3321 40.1727 14.2371 40.2006 14.1396C39.9095 13.3906 39.9095 12.5557 40.2006 11.8067C40.6718 10.5533 41.2974 9.36676 42.0622 8.27588C42.4776 8.57537 42.3545 8.89062 42.2468 9.19011C42.099 9.54715 41.9807 9.91624 41.8929 10.2935C41.8652 10.6713 41.8652 11.0506 41.8929 11.4284C42.8468 10.6718 42.9545 9.47384 43.893 8.78028C43.7545 9.94672 42.9853 10.8137 43.1237 11.9328C44.2314 11.6018 44.3084 10.2462 45.1699 9.75757L45.3392 9.86791C45.3116 10.0256 45.2651 10.1791 45.2007 10.325C44.5391 11.586 43.8776 12.8471 43.1545 14.0765C42.816 14.644 42.3853 15.243 41.5391 14.9593L41.016 15.4006H40.8929L41.1391 14.6125C42.5391 14.7386 42.6776 13.5879 43.2468 12.8313L42.3391 11.6806L41.7083 11.8382C41.6032 11.6288 41.5107 11.413 41.4314 11.192C41.3957 10.99 41.3336 10.7938 41.2468 10.6088C40.6713 11.466 40.4148 12.5062 40.5237 13.5406C40.6068 13.977 40.536 14.4295 40.3237 14.8174C38.5391 18.2694 36.7852 21.7214 35.0005 25.1735C34.7851 25.6306 34.5082 26.0562 34.7544 26.6079C35.3236 26.6079 35.4467 26.1035 35.6467 25.7252C36.8929 23.1401 38.139 20.5392 39.4006 17.9542C39.6929 17.3552 40.0314 16.772 40.3545 16.173H40.5083C40.4476 16.4095 40.3705 16.6413 40.2775 16.8665C38.816 20.0191 37.3544 23.0928 35.8775 26.198C35.5544 26.8601 35.4159 26.9389 34.5544 27.1438" fill="#B62025"/>
</g>
</g>
<defs>
<clipPath id="clip0_1_4588">
<rect width="45.3238" height="28.0576" fill="white" transform="translate(0 0.158203)"/>
</clipPath>
</defs>
</svg>
