<svg xmlns="http://www.w3.org/2000/svg" xmlns:xlink="http://www.w3.org/1999/xlink" viewBox="0 0 23 25.55"><defs><style>.cls-1{fill:none;}.cls-2{clip-path:url(#clip-path);}.cls-3{fill:#b62025;}</style><clipPath id="clip-path" transform="translate(-3.54 -2.9)"><rect class="cls-1" x="1.78" y="4.1" width="28.05" height="25.34" transform="translate(-4.42 27.82) rotate(-75.36)"/></clipPath></defs><g id="Layer_2" data-name="Layer 2"><g id="carr_right"><g class="cls-2"><path class="cls-3" d="M5.14,12.24l.2-.74A2.12,2.12,0,0,1,8.61,12c.19,0,.33,0,.61,0,.39-.62.75-1.23,1.1-1.87a1.5,1.5,0,0,1,1.39-.89c2.09,0,4.18-.07,6.28-.06a1,1,0,0,1,.66.38c.51.56,1,1.15,1.49,1.78,1.47-.09,2.95-.19,4.43-.25a12.53,12.53,0,0,1,1.32.07,1.32,1.32,0,0,1,.54,1.21q0,6,.06,11.92a9.92,9.92,0,0,0,0,1.09,1.17,1.17,0,0,1-.67,1.31c-1.71,0-3.47.06-5.22.16-4.72.27-9.4.84-14.08,1.46-.41.05-.82.12-1.24.14a1,1,0,0,1-1.2-.93A11.62,11.62,0,0,1,4,25.85c-.16-3.68-.3-7.36-.45-11,0-.24.17-.43.17-.68,0-1.2-.36-1.62,1.43-1.89m20.69-.7c-.45,0-.78,0-1.11,0l-19,1.07c-1.63.09-1.78.24-1.71,1.86.15,3.65.28,7.31.43,11,0,.59,0,1.17.07,1.75a.86.86,0,0,0,.64.85L5.66,28c4.43-.68,8.87-1.19,13.33-1.49,2-.14,4-.14,6-.22.36,0,.75,0,1-.34,0-.26,0-.55,0-.84q0-6.18,0-12.36a7.75,7.75,0,0,0-.18-1.18m-16.1.39,9.83-.56L18.13,9.61a30.49,30.49,0,0,0-7.2.22l-1.2,2.1m-4.4.29,2.43-.17c-.46-.82-1.28-.9-2.47-.3,0,.12,0,.25,0,.47" transform="translate(-3.54 -2.9)"/><path class="cls-3" d="M8.84,17.86a5.9,5.9,0,0,1,7.39-4.29,6.06,6.06,0,1,1-3.12,11.71,6,6,0,0,1-4.27-7.42m4.46,6.91a5.55,5.55,0,1,0-4-6.76,5.49,5.49,0,0,0,4,6.76" transform="translate(-3.54 -2.9)"/><path class="cls-3" d="M24.08,15.17l-3,.43a7.38,7.38,0,0,1-.33-2.33,12.75,12.75,0,0,1,3.3-.38c0,.78,0,1.49,0,2.28m-2.92-1.52c.09.51.16.95.24,1.43l2.21-.31c0-.5,0-.95,0-1.44-.59.07-1.1.12-1.6.19l-.82.13" transform="translate(-3.54 -2.9)"/><path class="cls-3" d="M5.45,25.15c-.52-2-.73-8.91-.36-9.92a2.76,2.76,0,0,1,.17.61q.11,4.66.19,9.31" transform="translate(-3.54 -2.9)"/><path class="cls-3" d="M13.92,15.84A3.84,3.84,0,0,0,11.7,18.4,3.23,3.23,0,0,0,12,20.54a3.4,3.4,0,0,0,4,1.69c1.71-.55,2.42-2,2.13-4.31a3.27,3.27,0,0,1-.76,3.77,3.61,3.61,0,0,1-6.05-3.44,3,3,0,0,1,2.67-2.41" transform="translate(-3.54 -2.9)"/><path class="cls-3" d="M14.77,15.35c.79-.09,1.39.53,2.09.71l-2.13-.56a1.17,1.17,0,0,1,0-.15" transform="translate(-3.54 -2.9)"/><path class="cls-3" d="M17.14,7.18A25.36,25.36,0,0,1,18,2.91h.17c0,.11.15.23.15.33-.12,1.42-.71,3.51-1.2,4" transform="translate(-3.54 -2.9)"/><path class="cls-3" d="M14.81,3.19a6.25,6.25,0,0,1,.77,3.15,5.1,5.1,0,0,1-.77-3.15" transform="translate(-3.54 -2.9)"/><path class="cls-3" d="M21.39,5A5.3,5.3,0,0,1,19,7.22c.12-.64.67-.88,1-1.24a3.71,3.71,0,0,1,1.31-1" transform="translate(-3.54 -2.9)"/></g></g></g></svg>