<svg width="188" height="57" viewBox="0 0 188 57" fill="none" xmlns="http://www.w3.org/2000/svg">
<path d="M69.1642 26.1487C67.087 28.6021 63.2189 31.448 59.8005 31.448C58.3612 31.448 57.6743 30.761 57.6743 29.6652C57.6743 28.2831 59.5061 25.4536 60.5938 25.4536C60.8882 25.4536 61.1908 25.609 61.1908 25.9034C61.1908 26.394 58.6638 28.7247 58.6147 30.2622C58.6147 30.712 58.8601 31.08 59.6043 31.08C62.9245 31.08 66.6863 28.4058 68.8698 25.8788C68.9428 25.882 69.0123 25.9109 69.0661 25.9602C69.1199 26.0096 69.1547 26.0763 69.1642 26.1487ZM62.4747 23.8262C62.5392 23.5267 62.7009 23.2569 62.9345 23.0587C63.1682 22.8605 63.4608 22.7451 63.7668 22.7303C64.2084 22.7303 64.511 22.9757 64.511 23.1311C64.511 23.5236 63.4152 24.0715 62.8264 24.0715C62.6792 24.0715 62.4747 24.0225 62.4747 23.8262Z" fill="white" stroke="white" stroke-miterlimit="10"/>
<path d="M80.6623 26.1487L80.2125 26.5985C78.6751 28.185 75.7556 31.1536 73.8256 31.1536C71.593 31.1536 72.5826 27.7352 71.3722 27.7352C70.4318 27.7352 67.5532 30.761 66.5146 31.8241L66.3183 32.0204C66.2713 32.1255 66.1941 32.2143 66.0966 32.2755C65.999 32.3366 65.8855 32.3674 65.7704 32.3639C65.6011 32.3618 65.4392 32.2942 65.3187 32.1752C65.1982 32.0563 65.1285 31.8953 65.1243 31.726C65.1243 30.9082 68.1011 25.5844 69.3359 25.5844C69.6876 25.5844 69.9329 25.7316 69.9329 25.9769C69.9254 26.1606 69.8563 26.3363 69.7367 26.4758C68.6168 27.8478 67.6437 29.3334 66.8335 30.9082C68.2728 29.3708 70.7016 26.9419 71.9365 26.9419C73.8747 26.9419 72.7543 30.761 74.2181 30.761C75.682 30.761 79.4193 26.8438 80.3597 25.8543C80.4368 25.8597 80.5095 25.8922 80.5649 25.9461C80.6203 26 80.6548 26.0718 80.6623 26.1487Z" fill="white" stroke="white" stroke-miterlimit="10"/>
<path d="M108.802 3.75759C108.802 6.93061 102.26 12.2299 99.087 14.1599C95.9167 16.2906 92.2601 17.5873 88.4557 17.9299C84.3232 22.3869 80.4774 27.1014 76.9413 32.0449C78.8794 29.9186 81.5536 27.3917 83.5817 27.3917C85.8633 27.3917 84.3995 31.4806 86.6075 31.4806C88.1858 31.4806 91.4079 28.463 93.1907 26.6802L93.8368 26.0341C93.8858 25.9851 93.9349 25.8869 94.033 25.8869C94.1012 25.9025 94.1626 25.9394 94.2082 25.9924C94.2539 26.0454 94.2813 26.1116 94.2865 26.1813C92.6019 27.9151 88.2922 32.1757 85.8633 32.1757C83.4345 32.1757 84.0806 27.9151 83.1401 27.9151C81.0547 27.9151 76.5978 32.9199 75.412 34.5555C75.2076 34.9562 75.0603 35.1525 74.7659 35.1525C74.5903 35.151 74.4216 35.0839 74.293 34.9644C74.1644 34.8448 74.0851 34.6815 74.0708 34.5064C74.063 34.4058 74.0799 34.3047 74.1199 34.212C75.6573 31.1862 80.8094 24.4967 86.6566 18.0116C82.1424 17.9789 76.4833 16.6868 76.4833 12.6224C76.4833 12.5243 76.9249 9.55571 78.1679 9.55571C78.2391 9.55104 78.3094 9.5739 78.3642 9.61956C78.419 9.66522 78.4541 9.7302 78.4623 9.80105C78.4623 9.89918 78.3642 10.0464 78.1679 10.1936C77.7418 10.4224 77.3895 10.7675 77.1521 11.1889C76.9146 11.6102 76.8018 12.0904 76.8268 12.5734C76.8268 16.3434 82.126 17.5782 86.3377 17.5782H86.9837C93.2398 10.7415 101.835 2.2038 106.668 2.2038C108.156 2.2038 108.802 2.76807 108.802 3.75759ZM108.451 3.75759C108.451 3.11154 108.107 2.62087 107.167 2.62087C103.2 2.62087 94.0821 11.8292 88.8319 17.4801C92.7491 17.1857 95.6686 15.7954 98.8907 13.8655C101.32 12.4261 108.451 6.83248 108.451 3.75759Z" fill="white" stroke="white" stroke-miterlimit="10"/>
<path d="M134.644 50.208C134.633 50.2414 134.613 50.2708 134.585 50.2926C134.557 50.3144 134.524 50.3277 134.489 50.3307C128.143 50.3307 123.661 46.5198 123.661 39.7485C123.661 25.1019 141.506 13.6529 141.506 7.11057C141.506 6.08016 140.868 5.7694 140.034 5.7694C138.652 5.7694 136.55 6.87342 135.945 7.23324C124.569 13.8164 107.919 29.6325 100.428 40.5663C100.314 40.5663 100.314 40.6481 100.314 40.6481C100.314 40.6481 100.191 40.5663 100.15 40.5336C101.581 27.9642 122.901 12.1073 124.054 2.83354C124.058 2.79226 124.077 2.75379 124.107 2.72523C124.137 2.69667 124.176 2.67995 124.218 2.67816C124.262 2.68767 124.302 2.71248 124.331 2.74831C124.359 2.78414 124.374 2.82874 124.373 2.87443C123.024 13.7755 102.612 29.5916 100.551 39.8548C108.238 28.9128 124.569 13.4566 135.83 6.95519C137.251 6.12608 138.837 5.62066 140.475 5.475C140.735 5.44105 140.999 5.46668 141.247 5.54993C141.496 5.63319 141.722 5.77188 141.909 5.9555C142.095 6.13913 142.238 6.36286 142.325 6.60975C142.413 6.85663 142.443 7.12019 142.413 7.38044C142.413 14.119 124.185 25.7316 124.185 40.3128C124.185 46.7815 128.658 50.069 134.489 50.069C134.527 50.0719 134.562 50.0871 134.59 50.1122C134.618 50.1373 134.637 50.171 134.644 50.208Z" fill="white" stroke="white" stroke-miterlimit="10"/>
<path d="M145.791 26.0997C144.219 27.833 142.38 29.3045 140.344 30.4585C138.063 31.7996 135.536 32.9854 132.862 34.3757C127.857 40.9671 115.623 56.456 110.781 56.456C110.037 56.456 109.538 56.1534 109.538 55.4092C109.538 54.665 110.283 53.0376 111.673 51.0504C116.727 43.9193 123.318 39.2661 130.695 35.2016L135.601 28.6593C134.366 29.6489 132.379 30.99 131.341 30.99C130.842 30.99 130.523 30.7447 130.523 30.0496C130.523 28.4631 132.355 25.4863 134.833 25.4863C135.29 25.4379 135.748 25.5645 136.115 25.8407C136.483 26.117 136.731 26.5222 136.812 26.9747C137.065 26.6312 137.212 26.1569 137.907 26.1569C138.202 26.1569 138.496 26.255 138.496 26.5576C138.456 26.7924 138.354 27.0124 138.202 27.1955C136.517 29.4771 134.931 31.6606 133.393 33.6887C138.398 30.9655 142.561 29.379 145.488 25.8625C145.558 25.8637 145.625 25.8876 145.679 25.9304C145.734 25.9732 145.773 26.0326 145.791 26.0997ZM130.081 35.9131C123.048 39.8712 116.809 44.4345 111.951 51.2712C110.667 53.103 109.923 54.5423 109.923 55.3601C109.918 55.4356 109.929 55.5111 109.954 55.5823C109.98 55.6535 110.019 55.7189 110.07 55.7746C110.121 55.8303 110.183 55.8751 110.252 55.9065C110.321 55.9378 110.395 55.9551 110.471 55.9571C110.982 55.8852 111.471 55.7008 111.902 55.4174C117.152 52.4079 125.624 41.654 130.081 35.9131ZM131.57 30.5566C132.559 30.5566 136.231 27.6371 136.476 27.4408C136.476 26.623 136.182 26.2959 135.659 26.2959C133.729 26.2959 131.349 29.2236 131.3 30.2622C131.324 30.4585 131.373 30.5566 131.57 30.5566Z" fill="white" stroke="white" stroke-miterlimit="10"/>
<path d="M141.776 34.2284C141.823 33.8843 141.978 33.5641 142.219 33.3142C142.46 33.0642 142.775 32.8975 143.117 32.8382C143.175 32.8343 143.234 32.8432 143.288 32.8642C143.343 32.8853 143.392 32.918 143.432 32.9601C143.473 33.0021 143.504 33.0525 143.523 33.1078C143.542 33.163 143.548 33.2217 143.542 33.2798C143.493 33.6158 143.337 33.927 143.097 34.1672C142.856 34.4073 142.545 34.5636 142.209 34.6128C141.907 34.5719 141.776 34.4738 141.776 34.2284ZM154.705 26.1487C152.775 28.4303 150.747 29.7142 148.465 29.7142C147.862 29.7294 147.26 29.6465 146.682 29.4689C146.052 30.1954 145.181 30.6714 144.229 30.8101C143.632 30.8101 143.191 30.4584 143.191 29.6652C143.26 28.8791 143.543 28.127 144.008 27.4899C143.91 27.4408 143.91 27.0891 143.91 26.9419C143.946 26.2644 144.246 25.628 144.746 25.1693C145.246 24.7106 145.906 24.4662 146.584 24.4886C146.815 24.4607 147.049 24.4823 147.271 24.5519C147.492 24.6215 147.697 24.7375 147.87 24.8923C148.043 25.047 148.182 25.2369 148.276 25.4494C148.37 25.6618 148.418 25.8918 148.416 26.1241C148.312 27.2837 147.802 28.3694 146.977 29.1909C147.445 29.325 147.93 29.3911 148.416 29.3871C150.6 29.3871 152.505 28.095 154.46 25.8706C154.528 25.8787 154.59 25.9115 154.635 25.9628C154.681 26.0141 154.705 26.0803 154.705 26.1487ZM146.282 29.3217C145.689 29.2029 145.142 28.9195 144.703 28.5039C144.349 28.9648 144.126 29.513 144.057 30.0904C144.057 30.3358 144.156 30.4339 144.352 30.4339C144.669 30.3813 144.973 30.2644 145.243 30.0904C145.613 29.8674 145.961 29.61 146.282 29.3217ZM144.303 27.0401C144.753 26.5003 145.243 25.658 145.938 25.658C146.282 25.658 146.756 25.8052 146.756 26.0996C146.756 26.394 145.717 27.1873 144.973 28.234C145.447 28.6303 146.007 28.9103 146.609 29.0518C147.431 28.3199 147.96 27.3145 148.097 26.2223C148.097 25.3309 147.5 24.9384 146.609 24.9384C146.318 24.9172 146.025 24.9555 145.749 25.051C145.474 25.1465 145.22 25.2972 145.004 25.4938C144.789 25.6905 144.615 25.9289 144.494 26.1948C144.374 26.4606 144.309 26.7482 144.303 27.0401Z" fill="white" stroke="white" stroke-miterlimit="10"/>
<path d="M184.979 25.1019C186.116 25.1019 186.958 25.3963 186.958 25.9933C186.954 26.1894 186.874 26.3763 186.736 26.5149C186.597 26.6536 186.41 26.7333 186.214 26.7375C185.871 26.7375 185.028 25.9197 183.491 25.9197C177.251 25.9197 161.746 33.149 155.686 33.149C153.699 33.149 151.965 32.1594 151.965 29.8778C151.965 27.5962 154.149 24.7748 156.52 24.7748C156.703 24.7637 156.887 24.7899 157.059 24.8516C157.232 24.9133 157.39 25.0093 157.525 25.1339C157.659 25.2584 157.767 25.4089 157.842 25.5763C157.917 25.7437 157.957 25.9245 157.96 26.1078C157.96 26.7539 157.616 26.9256 157.42 26.9256C157.394 26.924 157.369 26.9133 157.349 26.8955C157.33 26.8776 157.317 26.8536 157.314 26.8275C157.314 26.6312 157.567 26.3777 157.567 26.0833C157.567 25.7889 157.371 25.2655 156.921 25.2655C155.285 25.2655 153.102 28.3894 153.102 30.2213C153.077 30.5561 153.127 30.8923 153.246 31.206C153.365 31.5198 153.552 31.8036 153.793 32.0375C154.034 32.2713 154.323 32.4496 154.64 32.5597C154.957 32.6697 155.295 32.709 155.629 32.6746C160.65 32.7401 178.789 25.1019 184.979 25.1019Z" fill="white" stroke="white" stroke-miterlimit="10"/>
<path d="M57.5271 50.0526C51.8025 50.0526 48.2533 46.2499 48.2533 40.5417C48.2533 26.5085 67.3569 11.682 67.3569 6.40727C67.3569 5.30325 66.8417 4.26466 65.5332 4.26466C64.7684 4.32 64.0241 4.53744 63.3497 4.90254C54.2396 9.26135 40.7215 24.325 34.8498 33.2062C37.3931 23.45 52.0233 9.73566 52.0233 5.33596C52.0412 5.14931 52.0175 4.96101 51.9539 4.78463C51.8902 4.60825 51.7882 4.4482 51.6552 4.316C51.5222 4.1838 51.3616 4.08275 51.1848 4.02014C51.0081 3.95752 50.8197 3.9349 50.6331 3.9539C46.3152 3.9539 34.2773 14.4134 31.2924 17.2675C24.1405 24.262 17.5761 31.833 11.6655 39.9039C13.6445 29.6406 34.7762 13.841 35.4877 2.8826V2.71086C35.4877 2.11388 34.6699 1.8113 33.5086 1.8113C27.318 1.8113 9.17942 9.44944 4.17456 9.44944C3.84089 9.48233 3.50406 9.44207 3.18755 9.33147C2.87103 9.22086 2.58244 9.04257 2.34188 8.80902C2.10132 8.57547 1.91458 8.29227 1.79467 7.97916C1.67477 7.66606 1.62457 7.33057 1.64759 6.99607C1.64759 5.13152 3.83108 2.01574 5.46666 2.01574C5.90827 2.01574 6.11271 2.40828 6.11271 2.83353C6.11271 3.25878 5.8592 3.37327 5.8592 3.57772C5.86109 3.60312 5.87203 3.627 5.89004 3.64501C5.90806 3.66302 5.93193 3.67396 5.95733 3.67585C6.16178 3.67585 6.50525 3.47141 6.50525 2.85807C6.51013 2.66996 6.47585 2.4829 6.40459 2.30875C6.33333 2.1346 6.22665 1.97717 6.09131 1.84644C5.95597 1.71572 5.79493 1.61456 5.61842 1.54938C5.4419 1.4842 5.25376 1.45643 5.06594 1.46783C2.69436 1.46783 0.510864 4.19106 0.510864 6.57082C0.510864 8.95059 2.24458 9.84198 4.22362 9.84198C10.2753 9.84198 25.756 2.8826 32.0284 2.54731C32.7898 2.47035 33.5569 2.47035 34.3182 2.54731C34.6238 2.6214 34.9221 2.72266 35.2096 2.84989C34.0647 12.0827 12.8513 27.8987 11.3057 40.4681C11.308 40.5142 11.3252 40.5582 11.3547 40.5936C11.3842 40.629 11.4244 40.6538 11.4692 40.6644C11.4692 40.6235 11.5101 40.6644 11.5837 40.5826C17.6038 32.3461 24.2855 24.6142 31.5623 17.4638C34.261 14.855 46.5442 4.26466 50.6249 4.26466C50.8703 4.26466 51.181 4.26466 51.181 4.74716C51.0256 10.2509 36.559 22.5831 34.3755 33.9994C34.373 34.0467 34.3885 34.0932 34.4188 34.1296C34.4491 34.166 34.4921 34.1896 34.539 34.1957C34.539 34.1957 34.539 34.1139 34.6535 34.1139C40.2063 25.3554 54.1578 9.62117 63.4724 5.18058C64.1095 4.83849 64.8119 4.63504 65.5332 4.5836C66.4082 4.5836 66.6454 5.05792 66.6454 5.6549C66.4818 11.3222 47.6972 25.4372 47.6972 40.002C47.6972 45.98 51.4591 50.3061 57.5107 50.3061C57.5453 50.3137 57.5816 50.3078 57.612 50.2895C57.6424 50.2713 57.6647 50.2421 57.6743 50.208C57.6754 50.188 57.6724 50.168 57.6655 50.1492C57.6586 50.1303 57.6479 50.1131 57.6342 50.0986C57.6204 50.084 57.6038 50.0725 57.5853 50.0646C57.5669 50.0567 57.5471 50.0526 57.5271 50.0526Z" fill="white" stroke="white" stroke-miterlimit="10"/>
</svg>
