<svg width="188" height="60" viewBox="0 0 188 60" fill="none" xmlns="http://www.w3.org/2000/svg">
<path d="M13.6172 46.943C15.9053 43.6865 17.9471 40.2637 19.7255 36.7032C15.1755 42.0457 11.8275 46.5779 11.7117 49.2403C11.7295 49.2848 13.3412 47.3526 13.6172 46.943Z" stroke="white"/>
<path d="M23.6255 3.96251C21.4046 2.45765 18.7541 1.71688 16.0748 1.85222C9.2987 1.85222 1.4007 5.4317 1.4007 7.1324C1.4007 7.63994 2.13974 7.96049 4.07195 7.96049C8.32784 7.81064 12.5497 7.14387 16.6447 5.97486" stroke="white"/>
<path d="M13.6172 46.943C15.9053 43.6865 17.9471 40.2637 19.7255 36.7032C15.1755 42.0457 11.8275 46.5779 11.7117 49.2403C11.7295 49.2848 13.3412 47.3526 13.6172 46.943Z" stroke="white"/>
<path d="M45.2093 2.35973C45.1618 2.3617 45.1167 2.38084 45.0823 2.4136C45.0479 2.44636 45.0266 2.49051 45.0223 2.53782C45.0223 7.4084 32.0311 20.6756 22.2009 32.2511C25.0947 25.5017 27.1605 18.2448 27.1605 12.1365C27.1605 8.51252 26.2701 6.1262 24.6852 4.4255L24.0351 3.82892C21.9694 2.12822 19.0755 1.48712 16.0748 1.48712C8.79119 1.48712 1.03564 5.20017 1.03564 7.17689C1.08017 7.87142 2.08634 8.32553 4.29458 8.32553C5.06211 8.32015 5.82887 8.27557 6.59185 8.19197C7.49039 8.08884 8.38228 7.93424 9.26311 7.72895C7.48227 7.90704 5.70144 7.96046 4.05416 7.96046C2.13086 7.96046 1.38291 7.63991 1.38291 7.13237C1.40072 5.43167 9.29873 1.85219 16.0748 1.85219C18.7481 1.72076 21.3918 2.46136 23.6077 3.96248L24.2488 4.55906C25.9228 6.21524 26.7598 8.60156 26.7598 12.181C26.7598 18.6099 24.418 26.1873 21.3372 33.1682C15.683 39.9621 11.3645 45.9101 11.3645 49.2848C11.3645 49.5163 11.3645 49.6053 11.5515 49.6053C12.1035 49.6053 13.8399 47.219 13.8933 47.1745C16.4653 43.5131 18.7231 39.6408 20.6427 35.599C30.6064 24.1216 45.3874 9.47417 45.3874 2.53782C45.3834 2.49193 45.3633 2.44893 45.3307 2.41636C45.2982 2.38379 45.2552 2.36374 45.2093 2.35973ZM13.6173 46.943C13.3412 47.3526 11.7296 49.2848 11.7296 49.2403C11.8275 46.569 15.1755 42.0279 19.7433 36.7032C17.9592 40.2642 15.9115 43.687 13.6173 46.943Z" fill="white" stroke="white" stroke-miterlimit="10"/>
<path d="M9.27179 7.72896C11.8074 7.52491 14.2953 6.92398 16.6445 5.94812C14.6499 6.39333 11.7204 7.20361 9.27179 7.72896Z" fill="white" stroke="white" stroke-miterlimit="10"/>
<path d="M46.3491 32.6963C44.2477 34.9669 39.7689 39.2231 36.4209 39.2231C36.1557 39.2564 35.8863 39.2297 35.6328 39.1447C35.3794 39.0598 35.1483 38.9188 34.9567 38.7324C34.7651 38.5459 34.6179 38.3187 34.5261 38.0676C34.4343 37.8166 34.4003 37.548 34.4264 37.282C34.44 36.4168 34.6058 35.5608 34.9161 34.7532C33.5093 36.0443 31.7819 37.3354 30.9182 37.3354C30.7815 37.3535 30.6425 37.3417 30.5108 37.3008C30.3791 37.26 30.2579 37.191 30.1555 37.0988C30.053 37.0065 29.9718 36.8931 29.9175 36.7664C29.8632 36.6397 29.837 36.5027 29.8407 36.3648C29.8407 34.6463 32.2716 32.0018 33.9367 32.0018C34.2925 32.0232 34.6384 32.1269 34.9474 32.3045C35.2564 32.4822 35.52 32.7291 35.7175 33.0258C36.047 32.5895 36.2607 32.0552 36.9641 32.0552C37.1054 32.0427 37.2461 32.086 37.3559 32.1759C37.4657 32.2657 37.536 32.395 37.5518 32.536C37.5518 33.0258 35.397 36.1511 35.397 37.8785C35.3955 38.0076 35.4221 38.1355 35.475 38.2532C35.5278 38.371 35.6056 38.4758 35.703 38.5605C35.8005 38.6452 35.9151 38.7078 36.0391 38.7437C36.163 38.7797 36.2933 38.7883 36.4209 38.769C39.4929 38.769 44.0785 34.5039 46.0731 32.3491C46.2868 32.3758 46.3491 32.5538 46.3491 32.6963ZM34.4175 32.5538C33.5271 32.5538 30.5353 35.4655 30.5353 36.5518C30.5294 36.5953 30.5336 36.6396 30.5477 36.6811C30.5617 36.7227 30.5851 36.7605 30.6162 36.7915C30.6472 36.8225 30.685 36.846 30.7265 36.86C30.7681 36.874 30.8123 36.8783 30.8558 36.8724C31.7462 36.8724 34.0969 34.9313 35.5483 33.4176C35.3346 33.186 34.7737 32.5538 34.4175 32.5538ZM34.2038 28.4045C34.3107 28.4045 34.3641 28.4579 34.4175 28.5648C34.5243 28.9387 34.7915 29.8559 35.3079 29.8559C36.3319 29.8559 37.0888 28.3511 37.5162 27.6476C37.5454 27.6003 37.5859 27.5609 37.6341 27.5329C37.6822 27.505 37.7365 27.4893 37.7922 27.4874C37.9525 27.4874 38.2196 27.7011 38.2196 27.8613C38.2196 28.0216 38.2196 28.0216 38.1662 28.0839C37.623 28.8319 36.4388 30.2922 35.4148 30.3456C34.5244 30.3456 34.1237 29.4552 33.9011 28.725C33.9278 28.4935 34.0435 28.3867 34.2038 28.3867V28.4045Z" fill="white" stroke="white" stroke-miterlimit="10"/>
<path d="M58.815 32.6963L58.3342 33.186C56.6602 34.9135 53.4814 38.1457 51.3711 38.1457C48.9491 38.1457 50.0266 34.4237 48.6998 34.4237C47.6758 34.4237 44.5505 37.7183 43.4196 38.8758L43.2059 39.0895C43.1552 39.2049 43.0715 39.3028 42.9654 39.3709C42.8593 39.439 42.7354 39.4743 42.6094 39.4724C42.425 39.4725 42.2477 39.4012 42.1149 39.2733C41.982 39.1454 41.9039 38.971 41.897 38.7868C41.897 37.8964 45.1382 32.0997 46.4827 32.0997C46.8656 32.0997 47.1327 32.26 47.1327 32.5271C47.1245 32.7271 47.0492 32.9184 46.919 33.0703C45.7173 34.5677 44.6729 36.185 43.8025 37.8964C45.3697 36.2224 48.0142 33.5778 49.3587 33.5778C51.4601 33.5778 50.2492 37.7361 51.843 37.7361C53.4369 37.7361 57.5061 33.471 58.53 32.3936C58.6038 32.4065 58.6715 32.443 58.7228 32.4976C58.7742 32.5522 58.8065 32.6219 58.815 32.6963Z" fill="white" stroke="white" stroke-miterlimit="10"/>
<path d="M112.908 41.2799C112.946 40.9104 113.103 40.5632 113.355 40.2903C113.607 40.0174 113.94 39.8335 114.306 39.7662C114.635 39.7662 114.849 39.9264 114.849 40.2025C114.784 40.5599 114.608 40.8877 114.346 41.1389C114.084 41.39 113.749 41.5516 113.389 41.6004C112.961 41.6004 112.908 41.4579 112.908 41.2799ZM130.868 32.6962C128.766 34.9668 124.287 39.223 120.939 39.223C120.674 39.2564 120.405 39.2296 120.151 39.1446C119.898 39.0597 119.667 38.9188 119.475 38.7323C119.284 38.5458 119.136 38.3186 119.045 38.0676C118.953 37.8165 118.919 37.5479 118.945 37.2819C118.958 36.4168 119.124 35.5608 119.435 34.7531C118.028 36.0442 116.3 37.3353 115.437 37.3353C115.3 37.3534 115.161 37.3416 115.029 37.3008C114.898 37.2599 114.776 37.191 114.674 37.0987C114.571 37.0064 114.49 36.893 114.436 36.7663C114.382 36.6396 114.355 36.5026 114.359 36.3648C114.359 34.6462 116.79 32.0017 118.464 32.0017C118.82 32.0245 119.165 32.1287 119.474 32.3063C119.783 32.4838 120.046 32.7299 120.245 33.0257C120.565 32.5894 120.779 32.0551 121.483 32.0551C121.75 32.0551 122.079 32.2154 122.079 32.536C122.079 33.0257 119.915 36.1511 119.915 37.8785C119.914 38.0075 119.941 38.1354 119.993 38.2531C120.046 38.3709 120.124 38.4758 120.222 38.5605C120.319 38.6452 120.434 38.7077 120.558 38.7437C120.681 38.7796 120.812 38.7883 120.939 38.7689C124.02 38.7689 128.606 34.5038 130.6 32.349C130.814 32.3757 130.868 32.5538 130.868 32.6962ZM118.945 32.5538C118.054 32.5538 115.063 35.4654 115.063 36.5517C115.057 36.5952 115.061 36.6395 115.075 36.681C115.089 36.7226 115.113 36.7604 115.144 36.7914C115.175 36.8224 115.212 36.8459 115.254 36.8599C115.295 36.8739 115.34 36.8782 115.383 36.8723C116.274 36.8723 118.624 34.9312 120.076 33.4175C119.862 33.186 119.363 32.5538 118.945 32.5538Z" fill="white" stroke="white" stroke-miterlimit="10"/>
<path d="M143.405 32.6963L142.915 33.186C141.241 34.9135 138.062 38.1457 135.961 38.1457C133.53 38.1457 134.607 34.4237 133.29 34.4237C132.266 34.4237 129.131 37.7183 128 38.8758L127.787 39.0895C127.737 39.2056 127.654 39.3042 127.547 39.3724C127.441 39.4407 127.316 39.4755 127.19 39.4724C127.008 39.4681 126.834 39.395 126.704 39.2678C126.573 39.1407 126.496 38.9688 126.487 38.7868C126.487 37.8964 129.728 32.0997 131.072 32.0997C131.455 32.0997 131.722 32.26 131.722 32.5271C131.714 32.7271 131.639 32.9184 131.509 33.0703C130.288 34.5671 129.223 36.1841 128.33 37.8964C129.897 36.2224 132.542 33.5778 133.886 33.5778C135.996 33.5778 134.777 37.7361 136.37 37.7361C137.964 37.7361 142.033 33.471 143.057 32.3936C143.142 32.3947 143.223 32.4258 143.287 32.4812C143.35 32.5367 143.392 32.6129 143.405 32.6963Z" fill="white" stroke="white" stroke-miterlimit="10"/>
<path d="M187.133 31.9483C187.13 32.153 187.05 32.3492 186.91 32.4988C186.771 32.6484 186.58 32.741 186.376 32.7586C185.949 32.7586 185.192 31.8682 183.411 31.8682C176.671 31.8682 159.37 38.8223 151.312 38.8758C145.702 38.8758 147.75 34.2901 146.245 34.2901C144.028 34.2901 139.068 39.686 137.831 41.5203C137.763 41.6485 137.662 41.7559 137.538 41.8312C137.414 41.9065 137.272 41.9467 137.127 41.9477C136.957 41.958 136.79 41.9029 136.659 41.7936C136.528 41.6843 136.444 41.5292 136.424 41.36C136.421 41.2852 136.44 41.2112 136.477 41.1463C140.306 33.9695 163.19 6.29535 171.916 6.29535C173.537 6.29535 174.24 6.94535 174.24 8.02276C174.24 14.2557 152.069 27.8702 144.856 31.699C142.701 34.3702 140.867 36.8278 139.514 38.8223C141.615 36.5072 144.473 33.7558 146.637 33.7558C149.718 33.7558 146.316 38.3949 151.819 38.3949C159.423 38.3949 177.98 30.8887 184.72 30.8887C185.412 30.8553 186.1 31.0058 186.715 31.325C186.829 31.388 186.927 31.4775 187 31.5859C187.072 31.6943 187.118 31.8186 187.133 31.9483ZM145.595 30.7729C152.389 27.051 173.804 13.855 173.804 7.96043C173.804 7.257 173.483 6.72275 172.459 6.72275C166.556 6.73165 149.967 25.5284 145.595 30.7729Z" fill="white" stroke="white" stroke-miterlimit="10"/>
<path d="M114.021 58.839C107.788 58.839 103.923 54.6896 103.923 48.4745C103.897 33.2039 124.706 17.0606 124.706 11.3174C124.706 10.1064 124.145 8.98448 122.72 8.98448C121.89 9.0449 121.083 9.28168 120.352 9.67901C110.459 14.4249 95.6958 30.8264 89.3115 40.4964C92.0718 29.8737 108.01 14.9414 108.01 10.1509C108.03 9.94852 108.004 9.74434 107.935 9.55301C107.866 9.36168 107.756 9.18791 107.612 9.04414C107.469 8.90036 107.295 8.79013 107.103 8.72132C106.912 8.65252 106.708 8.62684 106.506 8.64612C101.795 8.64612 88.6972 20.0346 85.4382 23.1421C77.6511 30.7579 70.5037 39.0013 64.0682 47.7889C66.223 36.6053 89.267 19.4113 89.9794 7.47967C89.9794 7.47967 89.9794 7.33721 89.9794 7.28378C89.9794 6.64268 89.0889 6.31322 87.8156 6.31322C81.0752 6.31322 61.3346 14.6208 55.8852 14.6208C55.5216 14.6582 55.1542 14.6155 54.8089 14.4956C54.4635 14.3758 54.1487 14.1817 53.8864 13.9271C53.6241 13.6724 53.4208 13.3634 53.2908 13.0218C53.1608 12.6801 53.1072 12.3141 53.1339 11.9496C53.1339 9.95503 55.5024 6.60706 57.2832 6.60706C57.7729 6.60706 57.9866 7.03446 57.9866 7.49748C57.9866 7.9605 57.7195 8.08516 57.7195 8.29886C57.7213 8.3275 57.7329 8.35466 57.7523 8.37575C57.7718 8.39684 57.7979 8.41057 57.8264 8.41461C58.0401 8.41461 58.4229 8.19201 58.4229 7.52419C58.4209 7.32386 58.3781 7.12604 58.2973 6.94275C58.2164 6.75945 58.0991 6.5945 57.9526 6.45793C57.806 6.32135 57.6332 6.216 57.4447 6.14826C57.2561 6.08053 57.0558 6.05183 56.8558 6.06391C54.2647 6.06391 51.8873 9.029 51.8873 11.6201C51.8873 14.2112 53.775 15.1818 55.9387 15.1818C62.5189 15.1818 79.3834 7.60433 86.2129 7.23926C87.0448 7.15535 87.883 7.15535 88.715 7.23926C89.048 7.31869 89.3729 7.42899 89.6855 7.56871C88.4389 17.6215 65.3504 34.8422 63.6675 48.528C63.6695 48.5769 63.6869 48.6239 63.7173 48.6623C63.7477 48.7007 63.7895 48.7285 63.8367 48.7417C63.8367 48.6971 63.8812 48.7417 63.9702 48.6526C70.5195 39.6415 77.7948 31.181 85.7232 23.3558C88.6615 20.5065 102.045 8.98448 106.488 8.98448C106.746 8.98448 107.093 9.029 107.093 9.50092C106.915 15.5023 91.1636 28.9298 88.7951 41.3601C88.79 41.4107 88.8049 41.4613 88.8364 41.5012C88.868 41.5411 88.9139 41.5671 88.9643 41.5738C88.9643 41.5738 88.9643 41.4847 89.0889 41.4847C95.1349 31.9484 110.325 14.8167 120.467 9.98175C121.161 9.60927 121.926 9.38775 122.711 9.33174C123.664 9.33174 123.922 9.84818 123.922 10.4982C123.753 16.6688 103.291 32.0374 103.291 47.8958C103.291 54.4136 107.396 59.1239 113.976 59.1239C114.11 59.1239 114.154 59.0349 114.154 58.9904C114.153 58.9537 114.139 58.9186 114.114 58.891C114.09 58.8635 114.057 58.8451 114.021 58.839Z" fill="white" stroke="white" stroke-miterlimit="10"/>
</svg>
